<?xml version="1.0" encoding="utf-8"?>
<!-- Generator: Adobe Illustrator 16.0.0, SVG Export Plug-In . SVG Version: 6.00 Build 0)  -->
<!DOCTYPE svg PUBLIC "-//W3C//DTD SVG 1.1//EN" "http://www.w3.org/Graphics/SVG/1.1/DTD/svg11.dtd">
<svg version="1.1" id="Layer_1" xmlns="http://www.w3.org/2000/svg" xmlns:xlink="http://www.w3.org/1999/xlink" x="0px" y="0px"
	 width="84.4px" height="8.4px" viewBox="0 0 84.4 8.4" enable-background="new 0 0 84.4 8.4" xml:space="preserve">
<g>
	<rect x="44.6" y="0.2" fill="#D5DC25" width="5.1" height="8.1"/>
	<g>
		<defs>
			<rect id="SVGID_1_" x="1.3" width="82.7" height="8.4"/>
		</defs>
		<clipPath id="SVGID_2_">
			<use xlink:href="#SVGID_1_"  overflow="visible"/>
		</clipPath>
		<path clip-path="url(#SVGID_2_)" fill="#010101" d="M7,2.9C6.9,2.1,6.1,1.5,5.2,1.5C3.6,1.5,3,2.8,3,4.3c0,1.3,0.6,2.7,2.2,2.7
			c1.1,0,1.7-0.7,1.8-1.8h1.7c-0.2,2-1.6,3.3-3.5,3.3c-2.5,0-4-1.9-4-4.2c0-2.4,1.5-4.3,4-4.3C7,0,8.5,1,8.7,2.9H7z"/>
		<rect x="10" y="0.2" clip-path="url(#SVGID_2_)" fill="#010101" width="1.8" height="8"/>
		<polygon clip-path="url(#SVGID_2_)" fill="#010101" points="15.1,1.7 12.7,1.7 12.7,0.2 19.3,0.2 19.3,1.7 16.9,1.7 16.9,8.2 
			15.1,8.2 		"/>
		<rect x="20.2" y="0.2" clip-path="url(#SVGID_2_)" fill="#010101" width="1.8" height="8"/>
		<polygon clip-path="url(#SVGID_2_)" fill="#010101" points="23,6.8 27.3,1.7 23.3,1.7 23.3,0.2 29.7,0.2 29.7,1.6 25.4,6.8 
			29.8,6.8 29.8,8.2 23,8.2 		"/>
		<polygon clip-path="url(#SVGID_2_)" fill="#010101" points="30.8,0.2 36.8,0.2 36.8,1.7 32.6,1.7 32.6,3.4 36.5,3.4 36.5,4.8 
			32.6,4.8 32.6,6.8 36.9,6.8 36.9,8.2 30.8,8.2 		"/>
		<polygon clip-path="url(#SVGID_2_)" fill="#010101" points="38.1,0.2 39.9,0.2 43.2,5.6 43.3,5.6 43.3,0.2 44.9,0.2 44.9,8.2 
			43.2,8.2 39.8,2.9 39.8,2.9 39.8,8.2 38.1,8.2 		"/>
		<path clip-path="url(#SVGID_2_)" fill="#010101" d="M49.7,0.2h3.6c1.4,0,2.4,0.8,2.4,2.3c0,1.5-0.9,2.3-2.4,2.3h-2.8v3.4h-0.8V0.2
			z M50.4,4.1h2.6c1.1,0,1.8-0.5,1.8-1.6c0-1.1-0.7-1.6-1.8-1.6h-2.6V4.1z"/>
		<path clip-path="url(#SVGID_2_)" fill="#010101" d="M56.8,0.2h3.7c1.3,0,2.4,0.6,2.4,2.1c0,1-0.5,1.8-1.6,2.1v0
			c1,0.1,1.4,0.9,1.4,1.8c0,0.6,0,1.7,0.4,2.1h-0.8C62.1,7.9,62.1,7.3,62,7c-0.1-1.1-0.2-2.4-1.6-2.3h-2.9v3.6h-0.8V0.2z M57.5,4
			h2.9c0.9,0,1.7-0.6,1.7-1.6c0-1-0.6-1.6-1.7-1.6h-2.9V4z"/>
		<polygon clip-path="url(#SVGID_2_)" fill="#010101" points="64.3,0.2 69.8,0.2 69.8,0.8 65,0.8 65,3.8 69.5,3.8 69.5,4.4 65,4.4 
			65,7.6 69.9,7.6 69.9,8.2 64.3,8.2 		"/>
		<path clip-path="url(#SVGID_2_)" fill="#010101" d="M71.3,5.6c0,1.7,1.2,2.2,2.6,2.2c0.8,0,2.1-0.5,2.1-1.6c0-0.9-0.9-1.3-1.7-1.5
			l-1.8-0.4c-0.9-0.2-1.8-0.7-1.8-1.9c0-0.8,0.5-2.3,2.8-2.3c1.6,0,3,0.9,3,2.5h-0.8c0-1.2-1.1-1.8-2.2-1.8c-1,0-2,0.4-2,1.6
			c0,0.8,0.6,1.1,1.2,1.2l2,0.5c1.1,0.3,2.1,0.8,2.1,2.1c0,0.6-0.2,2.3-3.1,2.3c-1.9,0-3.3-0.9-3.2-2.8H71.3z"/>
		<path clip-path="url(#SVGID_2_)" fill="#010101" d="M78.4,5.6c0,1.7,1.2,2.2,2.6,2.2c0.8,0,2.1-0.5,2.1-1.6c0-0.9-0.9-1.3-1.7-1.5
			l-1.8-0.4c-0.9-0.2-1.8-0.7-1.8-1.9c0-0.8,0.5-2.3,2.8-2.3c1.6,0,3,0.9,3,2.5h-0.8c0-1.2-1.1-1.8-2.2-1.8c-1,0-2,0.4-2,1.6
			c0,0.8,0.6,1.1,1.2,1.2l2,0.5c1.1,0.3,2.1,0.8,2.1,2.1c0,0.6-0.2,2.3-3.1,2.3c-1.9,0-3.3-0.9-3.2-2.8H78.4z"/>
	</g>
</g>
</svg>
