<?xml version="1.0" encoding="utf-8"?>
<!-- Generator: Adobe Illustrator 16.0.0, SVG Export Plug-In . SVG Version: 6.00 Build 0)  -->
<!DOCTYPE svg PUBLIC "-//W3C//DTD SVG 1.1//EN" "http://www.w3.org/Graphics/SVG/1.1/DTD/svg11.dtd">
<svg version="1.1" id="Layer_1" xmlns="http://www.w3.org/2000/svg" xmlns:xlink="http://www.w3.org/1999/xlink" x="0px" y="0px"
	 width="146.4px" height="146.4px" viewBox="0 0 146.4 146.4" enable-background="new 0 0 146.4 146.4" xml:space="preserve">
<g>
	<path fill="#FFFFFF" d="M73.2,144.9c39.6,0,71.7-32.1,71.7-71.7S112.8,1.5,73.2,1.5C33.6,1.5,1.5,33.6,1.5,73.2
		S33.6,144.9,73.2,144.9"/>
	<path fill="none" stroke="#1B181C" stroke-width="0.5073" stroke-miterlimit="10" d="M73.2,146.2c40.2,0,73-32.7,73-73
		c0-40.2-32.7-73-73-73s-73,32.7-73,73C0.3,113.4,33,146.2,73.2,146.2z"/>
	<path fill="none" stroke="#1B181C" stroke-width="1.519" stroke-miterlimit="10" d="M73.2,144.2c39.1,0,70.9-31.8,70.9-70.9
		S112.3,2.3,73.2,2.3C34.1,2.3,2.3,34.1,2.3,73.2S34.1,144.2,73.2,144.2z"/>
</g>
<text transform="matrix(1 0 0 1 22.6196 48.9111)"><tspan x="0" y="0" fill="#010101" font-family="'BauerBodoniStd-Bold'" font-size="16.4049">MON SPORT</tspan><tspan x="8.6" y="18.5" fill="#010101" font-family="'BauerBodoniStd-Bold'" font-size="16.4049">MA VILLE</tspan></text>
<text transform="matrix(1 0 0 1 37.2725 113.3164)" fill="#010101" font-family="'BauerBodoniStd-Bold'" font-size="38.8857">moi</text>
<circle fill="#010101" cx="71.8" cy="82.6" r="8.2"/>
<text transform="matrix(1 0 0 1 65.6094 87.7969)" fill="#FFFFFF" font-family="'BauerBodoniStd-Bold'" font-size="16.4049">&amp;</text>
<rect x="92.8" y="66.6" transform="matrix(0.9935 -0.1141 0.1141 0.9935 -7.7775 13.5027)" fill="#D5DC25" width="42.5" height="16.2"/>
<text transform="matrix(1.0185 -0.117 0.1141 0.9935 97.1094 82.0391)" fill="#010101" font-family="'Bebas'" font-size="12.216" letter-spacing="-1">NANTES</text>
</svg>
