<?xml version="1.0" encoding="utf-8"?>
<!-- Generator: Adobe Illustrator 16.0.0, SVG Export Plug-In . SVG Version: 6.00 Build 0)  -->
<!DOCTYPE svg PUBLIC "-//W3C//DTD SVG 1.1//EN" "http://www.w3.org/Graphics/SVG/1.1/DTD/svg11.dtd">
<svg version="1.1" id="Layer_1" xmlns="http://www.w3.org/2000/svg" xmlns:xlink="http://www.w3.org/1999/xlink" x="0px" y="0px"
	 width="28.4px" height="27.8px" viewBox="0 0 28.4 27.8" enable-background="new 0 0 28.4 27.8" xml:space="preserve">
<g>
	<circle cx="14.3" cy="14.1" r="12.9"/>
	<g>
		<path fill="#FFFFFF" d="M21.4,21.1c-4.7,0-9.4,0-14.1,0c0,0,0,0,0,0s0,0,0,0c0-4.7,0-9.3,0-14c0,0,0,0,0-0.1c4.7,0,9.4,0,14.1,0
			C21.4,7.2,21.4,20.7,21.4,21.1z M16.3,15.2c0-0.4,0-2.2,0-2.3c-0.4,0-3.9,0-4,0c0,0.4,0,2.2,0,2.3C13.6,15.2,15,15.2,16.3,15.2z
			 M16.3,15.6c-1.4,0-2.7,0-4.1,0c0,0.8,0,1.5,0,2.3c1.4,0,2.7,0,4.1,0C16.3,17.1,16.3,16.3,16.3,15.6z M12,15.2c0-0.3,0-2.2,0-2.3
			c-1.2,0-2.5,0-3.7,0c0,0.3,0,2.2,0,2.3C9.5,15.2,10.7,15.2,12,15.2z M16.7,15.2c0.4,0,3.6,0,3.7,0c0-0.4,0-2.2,0-2.3
			c-0.4,0-3.6,0-3.7,0C16.7,13.7,16.7,14.5,16.7,15.2z M12,15.6c-0.4,0-3.6,0-3.7,0c0,0.3,0,2.2,0,2.3c0.4,0,3.6,0,3.7,0
			C12,17.1,12,16.3,12,15.6z M20.4,17.9c0-0.3,0-2.2,0-2.3c-1.2,0-2.5,0-3.7,0c0,0.3,0,2.2,0,2.3C17.9,17.9,19.1,17.9,20.4,17.9z
			 M12.3,12.6c1.4,0,2.7,0,4.1,0c0-0.7,0-1.3,0-2c-1.4,0-2.7,0-4.1,0C12.3,11.3,12.3,11.9,12.3,12.6z M12.3,20.1c0.6,0,3.9,0,4.1,0
			c0-0.4,0-1.8,0-1.9c-0.6,0-3.9,0-4,0C12.3,18.8,12.3,19.5,12.3,20.1z M12,12.6c0-0.5,0-1.8,0-2c-0.6,0-3.6,0-3.7,0
			c0,0.5,0,1.8,0,1.9C9.5,12.6,10.7,12.6,12,12.6z M20.4,12.6c0-0.4,0-1.8,0-2c-0.4,0-3.6,0-3.7,0c0,0.4,0,1.8,0,1.9
			C17.9,12.6,19.1,12.6,20.4,12.6z M8.2,20.1c1.2,0,2.5,0,3.7,0c0-0.3,0-1.8,0-2c-0.3,0-3.6,0-3.7,0C8.2,18.8,8.2,19.5,8.2,20.1z
			 M16.7,20.1c0.6,0,3.6,0,3.7,0c0-0.5,0-1.8,0-1.9c-0.6,0-3.6,0-3.7,0C16.7,18.8,16.7,19.5,16.7,20.1z"/>
	</g>
</g>
</svg>
