<?xml version="1.0" encoding="utf-8"?>
<!DOCTYPE svg PUBLIC "-//W3C//DTD SVG 1.1//EN" "http://www.w3.org/Graphics/SVG/1.1/DTD/svg11.dtd">
<svg version="1.1" xmlns="http://www.w3.org/2000/svg" xmlns:xlink="http://www.w3.org/1999/xlink" x="0px" y="0px"
	 width="12.5px" height="12.5px" viewBox="0 0 12.5 12.5" enable-background="new 0 0 12.5 12.5" xml:space="preserve">
<g id="X5b5LD_1_">
	<g>
		<path fill="#010101" d="M0,12.1C0,8.2,0,4.3,0,0.5c0.1-0.1,0.1-0.2,0.2-0.2C0.3,0.1,0.4,0.1,0.5,0c3.9,0,7.7,0,11.6,0
			c0.1,0.1,0.2,0.1,0.2,0.2c0.1,0.1,0.1,0.2,0.2,0.3c0,3.9,0,7.7,0,11.6c-0.1,0.1-0.1,0.2-0.2,0.2c-0.1,0.1-0.2,0.1-0.3,0.2
			c-1.1,0-2.3,0-3.4,0c0-1.6,0-3.2,0-4.8c0,0,0-0.1,0-0.1c0.5,0,1.1,0,1.6,0c0-0.1,0-0.1,0.1-0.2c0-0.2,0.1-0.5,0.1-0.7
			c0-0.1,0-0.2,0-0.3c0-0.1,0.1-0.3,0.1-0.4c0-0.1,0-0.1,0-0.2c-0.2,0-0.3,0-0.5,0c-0.1,0-0.3,0-0.4,0c-0.2,0-0.3,0-0.5,0
			c-0.2,0-0.3,0-0.5,0c0-0.5,0-0.9,0-1.4c0-0.1,0-0.2,0.1-0.3C8.8,3.9,8.9,3.8,9,3.7c0.1,0,0.2-0.1,0.3-0.1c0.4,0,0.7,0,1.1,0
			c0,0,0.1,0,0.1,0c0-0.6,0-1.1,0-1.7c-0.1,0-0.2,0-0.3-0.1c-0.3,0-0.6,0-0.9,0c-0.3,0-0.6,0-0.9,0.1C8.1,2,7.8,2.2,7.5,2.5
			C7,2.8,6.8,3.3,6.8,3.9c0,0.2,0,0.5,0,0.7c0,0.3,0,0.7,0,1c0,0,0,0.1,0,0.1c-0.5,0-1.1,0-1.6,0c0,0.2,0,1.7,0,1.9
			c0.2,0,0.4,0,0.5,0c0.2,0,0.4,0,0.6,0c0.2,0,0.4,0,0.5,0c0,0,0,0.1,0,0.1c0,1.6,0,3.2,0,4.8c-2.1,0-4.2,0-6.2,0
			c-0.1-0.1-0.2-0.1-0.2-0.2C0.1,12.3,0.1,12.2,0,12.1z"/>
	</g>
</g>
</svg>
